<svg id="content" 
    xmlns="http://www.w3.org/2000/svg" viewBox="0 0 623.62 208.73">
    <defs>
        <style>.cls-1{fill:#fff;}</style>
    </defs>
    <g id="barrel">
        <path id="white" class="cls-1" d="M582.08,105.85a4.64,4.64,0,0,0-3.76-3.28l-1.06-.14,0-.72c1-13.38.7-25.79-.8-35.88-2.1-14.21-6.18-21.77-12.13-22.49l-7.49-.9-.19-.37c-2.52-5-5.61-7.79-9.18-8.22l-11-1.31-.2-.27c-2.73-3.69-5.86-5.78-9.28-6.19l-20.25-2.44c-13.87-1.66-28.9,26-35.66,65.71v.76l-.83-.06c-130.91-10.71-218.37-7.94-317.06,0l-.83.07v-.77C145.69,49.61,130.68,22,116.79,23.64L96.54,26.08c-3.42.41-6.55,2.5-9.28,6.19l-.2.27-11,1.31c-3.57.43-6.67,3.2-9.19,8.22l-.18.37-7.5.9c-6,.72-10,8.28-12.13,22.49-1.5,10.09-1.77,22.49-.8,35.88l0,.72-1,.14a4.62,4.62,0,0,0-3.76,3.28,14,14,0,0,0-.66,6.59c.53,4.44,2.82,9,6.62,8.55l1-.12.11.73c2.39,15.05,6,28.7,10.29,38.44,5.24,12,11,17.76,17.19,17l6.4-.77.27.31c3.62,4.29,7.36,6.23,11.1,5.78l11.06-1.33.25.21c3.51,3,7,4.23,10.49,3.82l20.69-2.5c15.31-2.43,20.76-38.78,18.21-73.42l-.05-.76.76-.06c35.7-2.9,84.6-6.86,156.54-6.86s120.84,4,156.55,6.86l.76.06-.06.76c-2.55,34.64,2.9,71,18.24,73.42l20.66,2.5c3.45.41,7-.87,10.49-3.82l.25-.21,11.06,1.33c3.75.45,7.48-1.5,11.1-5.78l.27-.31,6.4.77c6.15.74,12-5,17.19-17,4.25-9.74,7.9-23.39,10.29-38.44l.11-.73,1,.12c3.8.46,6.09-4.11,6.63-8.55A14.22,14.22,0,0,0,582.08,105.85Z" transform="translate(0 0)"/>
        <g id="black">
            <path d="M65.72,109.46c-3.07-26.5-1.21-49,3-61.38a38.94,38.94,0,0,0-3.54,8.39,27.43,27.43,0,0,1,1.45-8.28,27.16,27.16,0,0,0-3.05,8.18c0-.59,0-1.18,0-1.78a28,28,0,0,1,.88-6.28,29.31,29.31,0,0,0-2.29,6.06c-.23.82-.42,1.64-.61,2.47,0-.71,0-1.42.06-2.13a29,29,0,0,1,.93-6.12,29.43,29.43,0,0,0-2.34,5.88c-.23.79-.42,1.58-.62,2.39,0-.68,0-1.35.08-2a28.47,28.47,0,0,1,1-6,30.84,30.84,0,0,0-2.38,5.71c-.24.76-.44,1.54-.64,2.31,0-.64,0-1.27.09-1.92a29.83,29.83,0,0,1,1-5.82c-1,1.73-2.89,4.11-4.56,13.08-2.06,11-1.71,23.8-1.39,28.65A136.63,136.63,0,0,1,54.09,76.4c.33-2.4.74-4.78,1.2-7.14v-.09c-.15,2.31-.28,4.62-.34,6.94q-.2,7.27.29,14.5c.16-4.82.54-9.63,1.14-14.39q.45-3.57,1.07-7.11l0-.13c-.12,2.32-.19,4.66-.22,7q-.09,7.22.38,14.4c.16-4.79.51-9.57,1-14.31.27-2.37.59-4.74.94-7.09a.5.5,0,0,0,0-.16c-.06,2.33-.1,4.67-.1,7q0,7.17.5,14.3c.16-4.76.48-9.5.93-14.23q.36-3.54.82-7.07a1.22,1.22,0,0,1,0-.17c0,.32,0,.62,0,.93a208.27,208.27,0,0,0,1,40.24,207.9,207.9,0,0,0,8.52,39.34c.08.29.14.6.23.9a.56.56,0,0,1-.07-.16q-1.29-3.31-2.47-6.67-2.34-6.74-4.29-13.6,1.24,7,2.91,14,.83,3.39,1.76,6.77a1.56,1.56,0,0,0-.06-.15c-.9-2.19-1.78-4.42-2.6-6.66-1.63-4.48-3.11-9-4.4-13.65.82,4.72,1.84,9.42,3,14.07q.87,3.39,1.87,6.73l-.06-.11c-1-2.2-1.87-4.42-2.72-6.66Q62,137.23,60,130.25c.83,4.75,1.88,9.48,3.15,14.15.61,2.24,1.28,4.45,2,6.66l0-.08c-1-2.18-2-4.4-2.85-6.65a136.44,136.44,0,0,1-4.64-13.76c.83,4.78,3.52,17.32,8.13,27.5,3.76,8.32,6.16,10.19,7.54,11.63a29.64,29.64,0,0,1-2.38-5.42c-.2-.61-.37-1.22-.54-1.84q.55,1.06,1.17,2.1a30.61,30.61,0,0,0,3.67,5,29.32,29.32,0,0,1-2.37-5.58c-.21-.64-.37-1.29-.55-1.94.38.73.76,1.46,1.17,2.17a29.52,29.52,0,0,0,3.66,5.16,29.64,29.64,0,0,1-2.35-5.73c-.21-.68-.39-1.36-.57-2,.38.76.76,1.51,1.18,2.25a29.06,29.06,0,0,0,3.67,5.34,27.85,27.85,0,0,1-2.35-5.89c-.16-.57-.31-1.15-.46-1.72a27.59,27.59,0,0,0,4.9,7.23,27.46,27.46,0,0,1-3.36-7.7,38.69,38.69,0,0,0,5.42,7.3C76.15,157.33,69,135.92,65.72,109.46Z" transform="translate(0 0)"/>
            <path d="M104.6,173.49c-9.42-10.93-18.31-36.42-22-66.06-3.45-29.68-.86-56.54,5.71-69.4a33.93,33.93,0,0,0-5.14,9.26,45,45,0,0,1,2.57-9,41.08,41.08,0,0,0-3.54,6.16c-.37.92-.71,1.87-1,2.82.1-.72.2-1.44.33-2.15a43.82,43.82,0,0,1,1.74-6.49,45.16,45.16,0,0,0-3.11,6.08c-.37.89-.72,1.81-1,2.74.09-.69.2-1.38.34-2.07A40.29,40.29,0,0,1,81.25,39,41.16,41.16,0,0,0,78.09,45c-.38.87-.72,1.77-1,2.68.11-.67.22-1.33.35-2a38.09,38.09,0,0,1,1.85-6.27A38.66,38.66,0,0,0,76,45.21c-.38.86-.73,1.73-1,2.62.09-.64.21-1.27.34-1.91a34.93,34.93,0,0,1,1.9-6.15A34.77,34.77,0,0,0,74,45.47c-.37.83-.72,1.67-1,2.53.1-.6.22-1.21.35-1.82a31.19,31.19,0,0,1,2-6c-1.28,1.71-2.73,3.05-5.33,13-3,11.44-2.71,25.54-2.63,28.17s.23,5.28.42,7.91c0-2.64.13-5.27.29-7.89s.37-5.25.68-7.85.66-5.2,1.13-7.76c.19-1.08.41-2.16.65-3.24-.09.9-.17,1.78-.24,2.69-.2,2.64-.31,5.29-.36,7.93s0,5.28.09,7.91.24,5.26.43,7.89c0-2.64.12-5.26.28-7.88s.36-5.23.64-7.83.62-5.2,1-7.77c.2-1.1.4-2.22.62-3.33-.08.93-.15,1.87-.21,2.81-.16,2.64-.24,5.28-.27,7.91s0,5.27.11,7.9.26,5.25.45,7.87c0-2.63.12-5.25.27-7.87s.34-5.22.6-7.82.59-5.18,1-7.76c.18-1.13.37-2.28.58-3.41-.06,1-.12,1.94-.17,2.91-.13,2.64-.19,5.27-.2,7.9s0,5.26.15,7.88.27,5.24.46,7.85c0-2.63.12-5.24.26-7.86s.32-5.21.57-7.8.54-5.19.91-7.76c.15-1.18.34-2.36.53-3.53-.06,1-.1,2-.14,3.06q-.13,3.94-.11,7.87,0,6.87.52,13.7c.15,6.94.64,14.25,1.53,21.83s2.19,14.8,3.69,21.57c.77,4.5,1.67,9,2.74,13.43q.9,3.82,2,7.62c.29,1,.57,2,.86,2.94-.46-1.09-.92-2.19-1.35-3.3q-1.45-3.63-2.72-7.32c-.86-2.46-1.66-5-2.4-7.45s-1.46-5-2.12-7.57c.43,2.58.89,5.16,1.41,7.73s1.1,5.14,1.73,7.7,1.32,5.09,2.06,7.62c.28.93.56,1.86.86,2.79-.48-1.05-.93-2.12-1.38-3.18-1-2.41-1.91-4.84-2.78-7.31s-1.68-4.95-2.44-7.45-1.46-5-2.13-7.58c.43,2.59.9,5.17,1.43,7.75s1.12,5.15,1.76,7.7,1.36,5.1,2.14,7.62c.28.9.57,1.79.87,2.68-.48-1-.94-2.06-1.39-3.09-1-2.39-2-4.83-2.86-7.29s-1.7-4.95-2.48-7.46-1.47-5-2.14-7.59c.43,2.6.91,5.18,1.45,7.77s1.13,5.15,1.79,7.7,1.41,5.1,2.23,7.63c.28.86.57,1.7.87,2.55-.49-1-1-2-1.4-3-1.06-2.38-2-4.82-2.94-7.27s-1.73-5-2.52-7.47-1.48-5.05-2.15-7.6c.44,2.6.91,5.2,1.46,7.79s3.62,16.34,9.24,26.74c4.88,9,6.61,10,8.25,11.36a31.73,31.73,0,0,1-3.32-5.4c-.27-.55-.53-1.12-.77-1.68.52.76,1.06,1.49,1.62,2.2a34.67,34.67,0,0,0,4.52,4.77,33.8,33.8,0,0,1-3.3-5.53c-.28-.58-.55-1.17-.79-1.76.52.78,1.06,1.55,1.63,2.29a38,38,0,0,0,4.5,4.89,38.07,38.07,0,0,1-3.28-5.65c-.28-.61-.55-1.22-.81-1.85.53.81,1.08,1.6,1.65,2.36a41.45,41.45,0,0,0,4.48,5,40.55,40.55,0,0,1-3.25-5.77c-.29-.64-.56-1.28-.82-1.93.53.83,1.08,1.64,1.65,2.42a45.24,45.24,0,0,0,4.46,5.17,45.1,45.1,0,0,1-3.22-5.9c-.29-.65-.57-1.32-.83-2,.52.86,1.08,1.7,1.66,2.5a40.8,40.8,0,0,0,4.89,5.15,45.3,45.3,0,0,1-4.63-8.13A33.93,33.93,0,0,0,104.6,173.49Z" transform="translate(0 0)"/>
            <path d="M129.87,175.45c-11.14-6.45-22.68-35.58-27-70.46-4.06-34.91.25-65.94,9.54-74.85a22.78,22.78,0,0,0-7.21,9c.34-3.56,3.47-8.36,3.66-8.67a30.42,30.42,0,0,0-5.71,8.41c0-.11,0-.22,0-.31.2-.88.39-1.77.62-2.62a23.88,23.88,0,0,1,1.94-5A22.66,22.66,0,0,0,104,33.06c-.54.75-1,1.55-1.51,2.35-.73,1.27-1.38,2.56-2,3.86l.08-.36c.17-.86.37-1.73.6-2.58a25,25,0,0,1,1.92-5,23.69,23.69,0,0,0-1.73,2.11,25.46,25.46,0,0,0-1.51,2.31c-.74,1.26-1.39,2.56-2,3.87,0-.13,0-.27.07-.4.16-.86.36-1.7.6-2.55a26.61,26.61,0,0,1,1.9-4.94,26.66,26.66,0,0,0-1.72,2.1,27.16,27.16,0,0,0-1.5,2.28c-.75,1.25-1.39,2.56-2,3.87,0-.14,0-.28.07-.43.16-.84.36-1.68.58-2.51a30.09,30.09,0,0,1,1.89-4.89c-.58.66-1.16,1.36-1.69,2.08s-1,1.46-1.51,2.24a35.54,35.54,0,0,0-2,3.88c0-.16,0-.31.07-.47.16-.83.35-1.65.58-2.48A32.55,32.55,0,0,1,95,32.58c-3.28,3.25-5.3,7.56-6.89,12.77-4,13-4.07,29.47-4,31.82,0,3.29.23,6.57.56,9.84a114,114,0,0,1,1.15-19.56c.49-3.21,1.1-6.41,1.85-9.57.43-1.86.93-3.7,1.45-5.54-.31,1.72-.6,3.44-.86,5.18-.46,3.24-.82,6.49-1,9.76s-.28,6.53-.23,9.8.25,6.51.56,9.75c-.08-3.26,0-6.51.16-9.75s.5-6.46.94-9.65,1-6.39,1.71-9.53c.41-1.86.88-3.72,1.38-5.55-.3,1.73-.56,3.46-.78,5.22q-.65,4.83-.9,9.69c-.17,3.24-.23,6.48-.16,9.72s.26,6.46.55,9.68c-.06-3.23,0-6.46.16-9.68s.47-6.4.88-9.58.94-6.35,1.59-9.48c.38-1.88.82-3.74,1.29-5.6-.27,1.76-.51,3.53-.71,5.3-.36,3.2-.63,6.41-.76,9.63s-.19,6.43-.1,9.63.27,6.42.55,9.61c0-3.21,0-6.41.16-9.6s.44-6.37.82-9.53.87-6.31,1.46-9.42c.36-1.89.77-3.77,1.21-5.62-.25,1.78-.46,3.56-.63,5.35-.31,3.18-.53,6.37-.63,9.56s-.14,6.38,0,9.56.3,6.36.56,9.53c0-3.18,0-6.35.17-9.52s.4-6.33.75-9.47S98,61.06,98.49,58c.33-1.89.71-3.77,1.12-5.64-.21,1.8-.39,3.6-.54,5.41-.25,3.16-.44,6.32-.5,9.48,0,1.84-.06,3.68,0,5.52a219.93,219.93,0,0,0,7.77,64.64c.43,1.79.87,3.57,1.36,5.35.81,3.05,1.74,6.08,2.73,9.09.57,1.72,1.17,3.42,1.81,5.12-.84-1.72-1.66-3.45-2.43-5.21-1.25-2.88-2.44-5.81-3.51-8.79s-2.09-6-3-9-1.69-6.12-2.42-9.21c.49,3.14,1,6.27,1.71,9.39s1.45,6.2,2.31,9.27,1.83,6.12,2.89,9.14c.58,1.69,1.21,3.37,1.87,5.05q-1.31-2.55-2.51-5.18c-1.31-2.88-2.54-5.82-3.65-8.81s-2.15-6-3-9.06-1.72-6.16-2.43-9.29c.48,3.17,1,6.33,1.74,9.47s1.48,6.25,2.38,9.34,1.92,6.14,3,9.17q.93,2.51,2,5c-.9-1.69-1.77-3.4-2.58-5.13q-2.06-4.34-3.79-8.84t-3.13-9.1c-.94-3.09-1.74-6.21-2.46-9.36.48,3.19,1.05,6.38,1.77,9.53s1.53,6.3,2.46,9.41,2,6.17,3.17,9.2c.63,1.65,1.3,3.28,2,4.89-.91-1.66-1.81-3.36-2.65-5.07-1.42-2.89-2.74-5.85-3.92-8.85s-2.26-6.06-3.2-9.16-1.77-6.25-2.47-9.43c.47,3.22,1,6.42,1.77,9.6s1.57,6.35,2.54,9.47,2.09,6.2,3.31,9.24c.66,1.63,1.35,3.23,2.07,4.82-1-1.66-1.87-3.33-2.73-5Q97,150,95.18,145.51a114,114,0,0,1-5.76-18.73c.46,3.25,1.06,6.49,1.79,9.69.53,2.29,4.5,18.22,11.46,30,2.78,4.68,5.77,8.39,9.73,10.77a31,31,0,0,1-3-4.26c-.42-.75-.8-1.51-1.15-2.27-.06-.15-.11-.3-.18-.44a36,36,0,0,0,2.87,3.29,26.6,26.6,0,0,0,2,1.83c.68.57,1.4,1.11,2.13,1.61a29.19,29.19,0,0,1-3-4.31c-.41-.74-.81-1.52-1.16-2.29,0-.14-.11-.27-.16-.41a39,39,0,0,0,2.86,3.29,25.15,25.15,0,0,0,2,1.86,26.54,26.54,0,0,0,2.16,1.63,26,26,0,0,1-3-4.35c-.43-.77-.82-1.54-1.19-2.33,0-.12-.1-.25-.16-.37.92,1.12,1.85,2.24,2.87,3.28a26.14,26.14,0,0,0,4.19,3.53,25.81,25.81,0,0,1-3-4.38c-.43-.78-.82-1.57-1.2-2.37l-.15-.33c.92,1.11,1.86,2.21,2.88,3.27a26.18,26.18,0,0,0,2,1.92,21.38,21.38,0,0,0,2.2,1.65,23.07,23.07,0,0,1-3.07-4.43c-.43-.77-.83-1.58-1.23-2.39,0-.09-.08-.19-.13-.29a30.7,30.7,0,0,0,7.55,6.82c-.27-.26-4.44-4.18-5.61-7.57A22.81,22.81,0,0,0,129.87,175.45Z" transform="translate(0 0)"/>
            <path d="M564.83,49.14a29.85,29.85,0,0,1,1,5.82c0,.65.06,1.28.08,1.92-.19-.77-.4-1.55-.63-2.31a30.21,30.21,0,0,0-2.39-5.71,29.16,29.16,0,0,1,1,6c.05.67.06,1.34.07,2-.19-.81-.38-1.6-.62-2.39A28.85,28.85,0,0,0,561,48.59a29.06,29.06,0,0,1,.94,6.12c0,.71,0,1.42.06,2.13-.19-.83-.38-1.65-.61-2.47a29.34,29.34,0,0,0-2.3-6.06,28,28,0,0,1,.88,6.28c0,.6,0,1.19,0,1.78a27.45,27.45,0,0,0-3-8.18,27.74,27.74,0,0,1,1.44,8.28,38.42,38.42,0,0,0-3.54-8.39c4.23,12.39,6.1,34.88,3,61.38-3.3,26.46-10.44,47.87-17.49,58.9a38.59,38.59,0,0,0,5.43-7.3,27.77,27.77,0,0,1-3.37,7.7,27.59,27.59,0,0,0,4.9-7.23c-.15.57-.29,1.15-.46,1.72a28.36,28.36,0,0,1-2.34,5.89,29,29,0,0,0,3.66-5.34c.42-.74.8-1.49,1.18-2.25-.18.69-.36,1.37-.56,2a29.68,29.68,0,0,1-2.36,5.73,29,29,0,0,0,3.66-5.16c.42-.71.79-1.44,1.17-2.17-.17.65-.34,1.3-.55,1.94a28.69,28.69,0,0,1-2.37,5.58,30.67,30.67,0,0,0,3.68-5c.41-.69.79-1.39,1.16-2.1-.17.62-.34,1.23-.54,1.84a29.6,29.6,0,0,1-2.37,5.42c1.38-1.44,3.78-3.31,7.53-11.63,4.61-10.18,7.3-22.72,8.14-27.5a139,139,0,0,1-4.64,13.76c-.89,2.25-1.85,4.47-2.86,6.65l0,.08c.7-2.21,1.37-4.42,2-6.66,1.28-4.67,2.33-9.4,3.16-14.15q-2,7-4.52,13.71-1.29,3.36-2.73,6.66a1.17,1.17,0,0,0-.05.11c.66-2.23,1.29-4.47,1.87-6.73,1.19-4.65,2.21-9.35,3-14.07q-2,6.91-4.41,13.65c-.82,2.24-1.69,4.47-2.59,6.66l-.07.15q.93-3.37,1.76-6.77c1.12-4.65,2.08-9.32,2.91-14-1.29,4.58-2.73,9.11-4.29,13.6q-1.17,3.36-2.46,6.67L552,150c.08-.3.15-.61.22-.9a208.65,208.65,0,0,0,8.53-39.34,209.07,209.07,0,0,0,1-40.24c0-.31,0-.61,0-.93a1.11,1.11,0,0,1,0,.17c.32,2.35.58,4.71.82,7.07q.68,7.09.94,14.23.46-7.12.49-14.3c0-2.33,0-4.67-.1-7a1.1,1.1,0,0,0,0,.16c.35,2.35.68,4.72.94,7.09.53,4.74.88,9.52,1.05,14.31q.46-7.19.38-14.4c0-2.32-.11-4.66-.22-7a.51.51,0,0,0,0,.13q.62,3.54,1.07,7.11c.6,4.76,1,9.57,1.14,14.39q.48-7.22.29-14.5c-.06-2.32-.18-4.63-.34-6.94l0,.09q.69,3.54,1.19,7.14a136.63,136.63,0,0,1,1.25,14.47c.32-4.85.68-17.67-1.38-28.65C567.72,53.25,565.83,50.87,564.83,49.14Z" transform="translate(0 0)"/>
            <path d="M549.74,136.44c.55-2.59,1-5.19,1.47-7.79-.68,2.55-1.39,5.09-2.16,7.6s-1.6,5-2.52,7.47-1.88,4.89-2.93,7.27c-.45,1-.92,2-1.4,3,.29-.85.59-1.69.86-2.55.83-2.53,1.56-5.07,2.23-7.63s1.25-5.13,1.79-7.7,1-5.17,1.46-7.77c-.68,2.55-1.37,5.08-2.15,7.59s-1.58,5-2.47,7.46-1.84,4.9-2.87,7.29c-.45,1-.91,2.07-1.39,3.09.3-.89.59-1.78.87-2.68.79-2.52,1.49-5.07,2.14-7.62s1.23-5.12,1.77-7.7,1-5.16,1.42-7.75c-.66,2.54-1.36,5.07-2.13,7.58s-1.56,5-2.43,7.45-1.8,4.9-2.79,7.31c-.45,1.06-.9,2.13-1.37,3.18.29-.93.58-1.86.85-2.79q1.13-3.8,2.06-7.62t1.73-7.7c.52-2.57,1-5.15,1.41-7.73-.65,2.54-1.36,5.06-2.11,7.57s-1.55,5-2.4,7.45-1.76,4.9-2.72,7.32c-.43,1.11-.89,2.21-1.35,3.3.29-1,.57-2,.85-2.94q1.06-3.79,2-7.62,1.59-6.69,2.74-13.43c1.5-6.77,2.75-14,3.68-21.57s1.39-14.89,1.54-21.83q.47-6.82.52-13.7,0-3.93-.12-7.87c0-1-.08-2-.13-3.06.19,1.17.37,2.35.53,3.53.36,2.57.67,5.16.91,7.76s.43,5.19.56,7.8.23,5.23.26,7.86c.2-2.61.36-5.23.46-7.85s.15-5.25.15-7.88-.07-5.26-.2-7.9c0-1-.1-1.94-.17-2.91.21,1.13.4,2.28.58,3.41.4,2.58.71,5.16,1,7.76s.45,5.21.6,7.82.23,5.24.27,7.87c.2-2.62.36-5.24.45-7.87s.14-5.26.12-7.9-.11-5.27-.28-7.91c-.06-.94-.13-1.88-.21-2.81.23,1.11.43,2.23.62,3.33.44,2.57.77,5.16,1.05,7.77s.48,5.21.64,7.83.24,5.24.29,7.88c.19-2.63.34-5.25.43-7.89s.12-5.27.08-7.91-.15-5.29-.36-7.93c-.06-.91-.15-1.79-.23-2.69.23,1.08.45,2.16.65,3.24.46,2.56.82,5.16,1.13,7.76s.51,5.22.67,7.85.25,5.25.3,7.89c.19-2.63.34-5.27.42-7.91s.36-16.73-2.64-28.17c-2.6-9.94-4.05-11.28-5.32-13a31.89,31.89,0,0,1,2,6c.13.61.25,1.22.35,1.82-.33-.86-.68-1.7-1.06-2.53a34.77,34.77,0,0,0-3.26-5.7,33.33,33.33,0,0,1,1.9,6.15c.13.64.25,1.27.35,1.91-.32-.89-.67-1.76-1-2.62a37.79,37.79,0,0,0-3.21-5.82,37.14,37.14,0,0,1,1.85,6.27c.13.66.25,1.32.35,2-.33-.91-.67-1.81-1.05-2.68A39.29,39.29,0,0,0,542.37,39a39.25,39.25,0,0,1,1.79,6.37c.14.69.25,1.38.34,2.07-.31-.93-.65-1.85-1-2.74a46.3,46.3,0,0,0-3.1-6.08,45,45,0,0,1,1.73,6.49c.13.71.24,1.43.33,2.15-.31-1-.65-1.9-1-2.82a39.42,39.42,0,0,0-3.54-6.16,44.85,44.85,0,0,1,2.58,9A33.93,33.93,0,0,0,535.31,38c6.56,12.86,9.15,39.72,5.7,69.4-3.68,29.64-12.56,55.13-22,66.06a33.93,33.93,0,0,0,7.19-7.78,45.3,45.3,0,0,1-4.63,8.13,40.83,40.83,0,0,0,4.9-5.15c.58-.8,1.13-1.64,1.66-2.5-.27.69-.54,1.36-.83,2a45.17,45.17,0,0,1-3.23,5.9,45.24,45.24,0,0,0,4.46-5.17c.57-.78,1.13-1.59,1.65-2.42-.25.65-.52,1.29-.82,1.93a39.59,39.59,0,0,1-3.25,5.77,40.62,40.62,0,0,0,4.48-5c.57-.76,1.12-1.55,1.65-2.36-.26.63-.52,1.24-.81,1.85a37.22,37.22,0,0,1-3.28,5.65,38,38,0,0,0,4.5-4.89c.57-.74,1.12-1.51,1.64-2.29-.25.59-.51,1.18-.8,1.76a33.1,33.1,0,0,1-3.3,5.53,34.08,34.08,0,0,0,4.52-4.77c.56-.71,1.1-1.44,1.63-2.2-.24.56-.5,1.13-.77,1.68a31.78,31.78,0,0,1-3.33,5.4c1.65-1.36,3.37-2.32,8.25-11.36C546.13,152.78,549.19,139,549.74,136.44Z" transform="translate(0 0)"/>
            <path d="M532.41,136.47c.73-3.2,1.34-6.44,1.79-9.69a113,113,0,0,1-5.75,18.73q-1.85,4.52-4.07,8.86c-.86,1.7-1.78,3.37-2.72,5,.71-1.59,1.4-3.19,2.06-4.82,1.23-3,2.34-6.11,3.31-9.24s1.82-6.28,2.54-9.47,1.3-6.38,1.78-9.6c-.7,3.18-1.53,6.33-2.48,9.43s-2,6.16-3.2,9.16-2.5,6-3.91,8.85c-.85,1.71-1.74,3.41-2.66,5.07q1-2.42,2-4.89,1.75-4.54,3.17-9.2c.93-3.11,1.76-6.25,2.46-9.41s1.28-6.34,1.76-9.53c-.72,3.15-1.52,6.27-2.46,9.36s-2,6.11-3.12,9.1-2.42,5.95-3.79,8.84c-.82,1.73-1.69,3.44-2.58,5.13q1-2.48,1.94-5c1.11-3,2.13-6.08,3-9.17s1.71-6.21,2.39-9.34,1.26-6.3,1.73-9.47c-.71,3.13-1.51,6.23-2.42,9.29s-1.94,6.09-3.06,9.06-2.34,5.93-3.65,8.81q-1.2,2.63-2.51,5.18,1-2.52,1.88-5.05c1.06-3,2-6.07,2.88-9.14s1.65-6.16,2.31-9.27,1.22-6.25,1.72-9.39c-.73,3.09-1.51,6.16-2.42,9.21s-1.89,6-3,9-2.26,5.91-3.52,8.79c-.77,1.76-1.58,3.49-2.43,5.21.64-1.7,1.24-3.4,1.81-5.12,1-3,1.93-6,2.74-9.09q.72-2.67,1.35-5.35a219.93,219.93,0,0,0,7.77-64.64c0-1.84,0-3.68-.05-5.52-.06-3.16-.25-6.32-.49-9.48-.15-1.81-.33-3.61-.55-5.41.41,1.87.79,3.75,1.12,5.64.54,3.1,1,6.23,1.33,9.37s.62,6.3.76,9.47.19,6.34.16,9.52c.27-3.17.48-6.34.56-9.53s.06-6.37-.05-9.56-.32-6.38-.63-9.56c-.17-1.79-.38-3.57-.63-5.35.44,1.85.85,3.73,1.21,5.62.59,3.11,1.09,6.26,1.46,9.42s.67,6.35.82,9.53.21,6.39.16,9.6c.29-3.19.49-6.4.56-9.61s0-6.42-.11-9.63-.4-6.43-.76-9.63c-.2-1.77-.44-3.54-.71-5.3.47,1.86.91,3.72,1.29,5.6.65,3.13,1.19,6.29,1.59,9.48s.71,6.37.88,9.58.22,6.45.17,9.68c.29-3.22.49-6.45.55-9.68s0-6.48-.17-9.72-.47-6.47-.89-9.69c-.23-1.76-.49-3.49-.78-5.22.49,1.83,1,3.69,1.37,5.55.7,3.14,1.28,6.33,1.71,9.53s.76,6.42.94,9.65.24,6.49.17,9.75c.3-3.24.5-6.49.55-9.75s0-6.53-.23-9.8-.55-6.52-1-9.76c-.25-1.74-.55-3.46-.86-5.18.52,1.84,1,3.68,1.45,5.54.75,3.16,1.37,6.36,1.85,9.57A114,114,0,0,1,539,87q.48-4.91.55-9.84c0-2.35,0-18.77-4-31.82-1.58-5.21-3.61-9.52-6.89-12.77a31.49,31.49,0,0,1,1.86,4.84c.23.83.42,1.65.58,2.48,0,.16,0,.31.07.47a35.54,35.54,0,0,0-2-3.88,26.58,26.58,0,0,0-1.51-2.24c-.53-.72-1.1-1.42-1.69-2.08a29.2,29.2,0,0,1,1.89,4.89c.23.83.43,1.67.59,2.51l.06.43c-.61-1.31-1.26-2.62-2-3.87A27.26,27.26,0,0,0,525,33.85q-.81-1.1-1.71-2.1a26.61,26.61,0,0,1,1.9,4.94c.23.85.43,1.69.6,2.55,0,.13,0,.27.07.4-.63-1.31-1.27-2.61-2-3.87a23.49,23.49,0,0,0-1.51-2.31,25.47,25.47,0,0,0-1.72-2.11,24.94,24.94,0,0,1,1.91,5c.24.85.43,1.72.61,2.58,0,.12,0,.24.07.36-.63-1.3-1.29-2.59-2-3.86a25.33,25.33,0,0,0-1.51-2.35,21.19,21.19,0,0,0-1.75-2.12,23.34,23.34,0,0,1,1.94,5c.23.85.43,1.74.62,2.62,0,.09,0,.2.06.31a30.75,30.75,0,0,0-5.72-8.41c.2.31,3.32,5.11,3.66,8.67a22.69,22.69,0,0,0-7.21-9c9.3,8.91,13.6,39.94,9.54,74.85-4.33,34.88-15.86,64-27,70.46a22.74,22.74,0,0,0,9.15-7.06c-1.18,3.39-5.35,7.31-5.61,7.57a30.8,30.8,0,0,0,7.54-6.82c-.05.1-.09.2-.13.29-.4.81-.79,1.62-1.22,2.39a23.12,23.12,0,0,1-3.08,4.43,20.35,20.35,0,0,0,2.2-1.65,26.32,26.32,0,0,0,2-1.92c1-1.06,1.95-2.16,2.88-3.27l-.16.33q-.56,1.2-1.2,2.37a25.81,25.81,0,0,1-3,4.38,24.21,24.21,0,0,0,2.17-1.64,25.8,25.8,0,0,0,2-1.89c1-1,2-2.16,2.87-3.28l-.16.37c-.36.79-.75,1.56-1.18,2.33a26.65,26.65,0,0,1-3,4.35c.74-.51,1.46-1,2.16-1.63a25,25,0,0,0,2-1.86,39.07,39.07,0,0,0,2.87-3.29l-.17.41c-.35.77-.74,1.55-1.16,2.29a29.9,29.9,0,0,1-3,4.31c.72-.5,1.44-1,2.13-1.61s1.35-1.18,2-1.83a35.85,35.85,0,0,0,2.86-3.29l-.18.44c-.35.76-.73,1.52-1.15,2.27a31,31,0,0,1-3,4.26c4-2.38,6.95-6.09,9.73-10.77C527.91,154.69,531.89,138.76,532.41,136.47Z" transform="translate(0 0)"/>
            <path d="M578.42,101.81l-.34,0c1-13.42.7-25.84-.81-36-2.16-14.59-6.46-22.38-12.8-23.14l-7.08-.85c-2.65-5.28-5.94-8.18-9.78-8.64L537,31.82c-2.86-3.87-6.16-6.06-9.81-6.5l-20.24-2.44c-14.56-1.74-29.71,26.26-36.52,66.4h0c-128.36-10.5-216.45-8.11-317.19,0h0c-6.82-40.14-22-68.14-36.52-66.4L96.45,25.32c-3.65.44-7,2.63-9.81,6.5L76,33.09c-3.84.46-7.14,3.36-9.79,8.64l-7.08.85c-6.33.76-10.64,8.55-12.8,23.14-1.51,10.2-1.78,22.62-.81,36l-.33,0c-4.32.51-5.66,5.92-5.09,10.72s3.17,9.74,7.48,9.22l.26,0c2.39,15.11,6,28.77,10.34,38.63,5.39,12.37,11.44,18.26,18,17.47l6-.72c3.81,4.5,7.76,6.52,11.78,6l10.73-1.29c3.68,3.09,7.39,4.43,11.07,4l20.69-2.5c16.05-2.55,21.45-39.33,18.89-74.24,40.63-3.29,87-6.85,156.48-6.85s115.86,3.56,156.48,6.85c-2.56,34.91,2.84,71.69,18.89,74.24l20.69,2.5c3.68.44,7.39-.9,11.07-4l10.73,1.29c4,.48,8-1.54,11.78-6l6,.72c6.54.79,12.6-5.1,18-17.47,4.29-9.86,7.94-23.52,10.34-38.63l.25,0c4.31.52,6.9-4.41,7.48-9.22S582.73,102.32,578.42,101.81ZM479.79,91.39c.5-3.29,1.06-6.59,1.7-9.85a181.63,181.63,0,0,1,6.63-25.11,77.11,77.11,0,0,1,5.26-12A28.18,28.18,0,0,1,497.25,39,10.69,10.69,0,0,1,500.06,37a4.54,4.54,0,0,1,3.7-.2,6.48,6.48,0,0,1,2.69,2.33l.48.71.39.75A10.23,10.23,0,0,1,508,42a35.34,35.34,0,0,1,1.81,6.28,82.15,82.15,0,0,1,1.42,12.86c-.25-2.13-.52-4.27-.88-6.39s-.74-4.23-1.28-6.3a34.33,34.33,0,0,0-2.05-6,12.09,12.09,0,0,0-.74-1.38l-.39-.66-.45-.62a5.21,5.21,0,0,0-2.2-1.75,3.16,3.16,0,0,0-2.56.24,9.56,9.56,0,0,0-2.26,1.85,25.74,25.74,0,0,0-3.43,5.2,77.66,77.66,0,0,0-4.78,11.78A192.75,192.75,0,0,0,484.16,82c-.62,3.38-1.19,6.76-1.67,10.16l-2.77-.33C479.75,91.71,479.76,91.55,479.79,91.39Zm.45,54.49c.21,2.12.5,4.23.87,6.31a45.85,45.85,0,0,0,1.46,6.12,15.06,15.06,0,0,0,2.71,5.29,3.4,3.4,0,0,0,2.11,1.23,3.63,3.63,0,0,0,2.39-.72,15.94,15.94,0,0,0,4.05-4.51,47.35,47.35,0,0,0,3.05-5.56c3.67-7.7,6.12-16,8.39-24.3-.82,4.23-1.77,8.43-2.94,12.59a102.77,102.77,0,0,1-4.17,12.29,48.66,48.66,0,0,1-2.93,5.87,17.69,17.69,0,0,1-4.38,5.17,7.21,7.21,0,0,1-1.65.88,5.08,5.08,0,0,1-2,.27,5.43,5.43,0,0,1-3.44-1.78,17.34,17.34,0,0,1-3.33-6,62.11,62.11,0,0,1-2.7-12.87c-.5-4.32-.77-8.65-.89-13a231.73,231.73,0,0,1,.79-23.57l2.84.32c-.66,7.72-1,15.48-.92,23.21C479.61,137.39,479.81,141.65,480.24,145.88ZM493,89.66a5,5,0,0,0-1.25-2.3l-.2-.14-.2-.09a1,1,0,0,0-.46,0,1.93,1.93,0,0,0-.87.38,2.11,2.11,0,0,0-.27.18,10.22,10.22,0,0,0-2,2.35c-.53.83-1,1.73-1.51,2.64a2.53,2.53,0,0,1-.12.23c0-.08.05-.16.06-.23a17.71,17.71,0,0,1,.87-3,10.26,10.26,0,0,1,1.78-3,3.9,3.9,0,0,1,1.68-1.13,2.9,2.9,0,0,1,2.3.29,4.86,4.86,0,0,1,.86.68,8.66,8.66,0,0,1,.6.79,9.73,9.73,0,0,1,.86,1.66c1.68,4.52,1.57,9.18,1.06,13.68a38.68,38.68,0,0,1-1.53,6.68,25.49,25.49,0,0,1-1.34,3.22,13.71,13.71,0,0,1-2,3,6.57,6.57,0,0,1-1.56,1.26,3.16,3.16,0,0,1-2.29.37,3.33,3.33,0,0,1-1.8-1.26,5.85,5.85,0,0,1-.86-1.66,15.07,15.07,0,0,1-.72-5.44c0-.08,0-.17,0-.25a20.79,20.79,0,0,0,2,5.11,4.48,4.48,0,0,0,.66,1,1.73,1.73,0,0,0,1.09.7,2.47,2.47,0,0,0,1.78-1.24,19,19,0,0,0,2.45-5.59,41.18,41.18,0,0,0,1.26-6.25,41.37,41.37,0,0,0,.43-6.38A23.73,23.73,0,0,0,493,89.66ZM142.14,81.54c.63,3.26,1.19,6.56,1.69,9.85,0,.16,0,.32.07.48l-2.77.33c-.48-3.4-1-6.78-1.66-10.16a196.09,196.09,0,0,0-6.08-24.9,77.7,77.7,0,0,0-4.79-11.78,25.74,25.74,0,0,0-3.43-5.2,9.37,9.37,0,0,0-2.26-1.85,3.14,3.14,0,0,0-2.55-.24,5.1,5.1,0,0,0-2.2,1.75l-.46.62-.39.66a12,12,0,0,0-.73,1.38,33.52,33.52,0,0,0-2,6c-.54,2.07-.94,4.19-1.29,6.3s-.62,4.26-.87,6.39a81,81,0,0,1,1.42-12.86,35.31,35.31,0,0,1,1.8-6.28,12.79,12.79,0,0,1,.71-1.5l.39-.75.48-.71a6.61,6.61,0,0,1,2.69-2.33,4.56,4.56,0,0,1,3.71.2,10.48,10.48,0,0,1,2.8,2.08,27.75,27.75,0,0,1,3.87,5.43,77.16,77.16,0,0,1,5.27,12A184.5,184.5,0,0,1,142.14,81.54Zm-11.8,20.68a41.21,41.21,0,0,0,1.27,6.25,18.73,18.73,0,0,0,2.45,5.59,2.46,2.46,0,0,0,1.77,1.24,1.75,1.75,0,0,0,1.1-.7,4.83,4.83,0,0,0,.65-1,21.22,21.22,0,0,0,2-5.11c0,.08,0,.17,0,.25a15.3,15.3,0,0,1-.73,5.44,5.85,5.85,0,0,1-.86,1.66,3.33,3.33,0,0,1-1.8,1.26,3.16,3.16,0,0,1-2.29-.37,6.78,6.78,0,0,1-1.56-1.26,13.71,13.71,0,0,1-2-3,25.42,25.42,0,0,1-1.33-3.22,38.68,38.68,0,0,1-1.53-6.68c-.52-4.5-.63-9.16,1.05-13.68a9.73,9.73,0,0,1,.86-1.66,8.8,8.8,0,0,1,.61-.79,4.86,4.86,0,0,1,.86-.68,2.89,2.89,0,0,1,2.3-.29,3.93,3.93,0,0,1,1.67,1.13,9.85,9.85,0,0,1,1.78,3,17.71,17.71,0,0,1,.87,3l.06.23-.12-.23c-.47-.91-1-1.81-1.51-2.64a10,10,0,0,0-2-2.35,1.51,1.51,0,0,0-.26-.18,2,2,0,0,0-.88-.38,1,1,0,0,0-.46,0,1.21,1.21,0,0,1-.2.09l-.19.14a5,5,0,0,0-1.26,2.3,23.73,23.73,0,0,0-.73,6.18A41.36,41.36,0,0,0,130.34,102.22Zm12.8,7.69,2.84-.32a231.73,231.73,0,0,1,.8,23.57c-.12,4.35-.4,8.68-.89,13A62.13,62.13,0,0,1,143.18,159a17.18,17.18,0,0,1-3.33,6,5.43,5.43,0,0,1-3.44,1.78,5.11,5.11,0,0,1-2-.27,7.42,7.42,0,0,1-1.65-.88,17.65,17.65,0,0,1-4.37-5.17,48.73,48.73,0,0,1-2.94-5.87,102.77,102.77,0,0,1-4.17-12.29c-1.16-4.16-2.11-8.36-2.93-12.59,2.26,8.3,4.71,16.6,8.39,24.3a47.29,47.29,0,0,0,3,5.56,15.94,15.94,0,0,0,4.05,4.51,3.65,3.65,0,0,0,2.39.72,3.45,3.45,0,0,0,2.12-1.23,15.22,15.22,0,0,0,2.71-5.29,45.82,45.82,0,0,0,1.45-6.12c.37-2.08.66-4.19.88-6.31.42-4.23.62-8.49.67-12.76C144.15,125.39,143.8,117.63,143.14,109.91ZM47,117c-.46-.07-1.77-1.86-2.15-5s.47-5.23.92-5.41l2-.24c.18,2,.4,4,.64,5.94l-.64.08a1.85,1.85,0,0,1-1.91-.87s.31,4,1.66,3.87l1.26-.15c.06.53.13,1,.2,1.58Zm88.4,61.66-20.25,2.43c-3.14.38-7-1.9-9.28-4.2L93.37,178.4c-2.78.33-5.94-1.93-9.13-6.38l-8.62,1c-9.21,1.11-20.09-26.21-24.26-60.9-2-16.94-2.14-33.18-.27-45.74,1.69-11.51,4.93-18.66,8.63-19.1l9.7-1.07c2-5.09,4.48-8.09,7.16-8.42,0,0,12.56-1.47,12.64-1.45,2.23-3.73,4.84-6,7.8-6.32l13.1-1.58,7.15-.86a7.27,7.27,0,0,1,2.08.06c4.78.8,9.78,6.14,14.35,14.74-4.39-7.8-9.12-12.15-13.59-11.61-11.57,1.39-17.07,34.72-12.3,74.42s18,70.78,29.59,69.39c4.45-.54,8-5.81,10.42-14.37C145,171.13,140.75,178,135.43,178.66Zm176.9-81.19h-1c-47.5.42-128.6,4.19-175.54,8.55-.45-.08-1.54-1.91-1.54-5.12s1.09-5.24,1.55-5.41c47.11-4.37,121-8.55,176-8.55s128.93,4.18,176.05,8.55c.46.17,1.54,2.2,1.54,5.41s-1.08,5-1.54,5.12C440.92,101.66,359.83,97.89,312.33,97.47Zm259.94,14.7c-4.17,34.69-15.06,62-24.26,60.9l-8.63-1c-3.19,4.45-6.34,6.71-9.13,6.38l-12.53-1.51c-2.3,2.3-6.14,4.58-9.27,4.2l-20.26-2.43c-5.31-.64-9.61-7.53-12.39-18.4,2.42,8.56,6,13.83,10.43,14.37C497.79,176,511,145,515.81,105.24s-.73-73-12.29-74.42c-4.48-.54-9.2,3.81-13.6,11.61,4.58-8.6,9.57-13.94,14.36-14.74a7.21,7.21,0,0,1,2.07-.06l7.15.86,13.1,1.58c3,.36,5.58,2.59,7.81,6.32.08,0,12.63,1.45,12.63,1.45,2.69.33,5.16,3.33,7.17,8.42l9.7,1.07c3.7.44,6.93,7.59,8.62,19.1C574.4,79,574.31,95.23,572.27,112.17Zm6.48-.21c-.38,3.18-1.69,5-2.15,5l-2-.24c.08-.53.14-1.05.21-1.58l1.26.15c1.35.16,1.65-3.87,1.65-3.87a1.85,1.85,0,0,1-1.91.87l-.63-.08c.24-2,.45-4,.64-5.94l2,.24C578.28,106.73,579.13,108.78,578.75,112Z" transform="translate(0 0)"/>
            <path d="M487.77,101.47c-46.93-4.35-128-8.11-175.47-8.54h-1c-47.48.43-128.54,4.19-175.47,8.54-.59.06-.84-.89-.84-.89,0,1.58.54,3.79.92,3.76C183,100,264.43,96.2,311.81,95.8c47.39.4,128.82,4.18,175.89,8.54.37,0,.91-2.18.91-3.76C488.61,100.58,488.36,101.53,487.77,101.47Z" transform="translate(0 0)"/>
        </g>
    </g>
</svg>